<svg version="1.1" xmlns="http://www.w3.org/2000/svg" xmlns:xlink="http://www.w3.org/1999/xlink" width="65.33333" height="92" viewBox="0,0,65.33333,92"><defs><linearGradient x1="239.68699" y1="168.76918" x2="239.68699" y2="216.77334" gradientUnits="userSpaceOnUse" id="color-1"><stop offset="0" stop-color="#9966ff"/><stop offset="1" stop-color="#5c43a9"/></linearGradient><linearGradient x1="222.60834" y1="162.10667" x2="256.60834" y2="162.10667" gradientUnits="userSpaceOnUse" id="color-2"><stop offset="0" stop-color="#9966ff"/><stop offset="1" stop-color="#5c43a9"/></linearGradient><linearGradient x1="240.275" y1="133.44" x2="240.275" y2="165.44" gradientUnits="userSpaceOnUse" id="color-3"><stop offset="0" stop-color="#9966ff"/><stop offset="1" stop-color="#5c43a9"/></linearGradient><linearGradient x1="239.94167" y1="126.77334" x2="239.94167" y2="147.95649" gradientUnits="userSpaceOnUse" id="color-4"><stop offset="0" stop-color="#9966ff"/><stop offset="1" stop-color="#5c43a9"/></linearGradient></defs><g transform="translate(-207.60834,-125.77334)"><g data-paper-data="{&quot;isPaintingLayer&quot;:true}" fill-rule="nonzero" stroke="#000000" stroke-width="2" stroke-linecap="butt" stroke-linejoin="miter" stroke-miterlimit="10" stroke-dasharray="" stroke-dashoffset="0" style="mix-blend-mode: normal"><g><path d="M257.275,189.66709c1.36295,8.39207 1.41762,16.23593 -2.11313,21.97253c-2.66742,4.3339 -11.34498,5.13371 -14.88687,5.13371c-3.83901,0 -12.0305,-0.87357 -15.55994,-4.56137c-5.34905,-5.58907 -3.44006,-8.51048 -1.44006,-22.54487c3.08876,-21.67443 6.94449,-20.89439 16.33333,-20.89439c9.38884,0 14.15406,-0.73368 17.66667,20.89439z" fill="url(#color-1)"/><path d="M256.60834,162.10667c0,8.83656 -7.61116,16 -17,16c-9.38884,0 -17,-7.16344 -17,-16c0,-8.83656 7.61116,-16 17,-16c9.38884,0 17,7.16344 17,16z" fill="url(#color-2)"/><g><path d="M271.94167,149.44c0,8.83656 -14.17765,16 -31.66667,16c-17.48902,0 -31.66667,-7.16344 -31.66667,-16c0,-8.83656 14.17765,-16 31.66667,-16c17.48902,0 31.66667,7.16344 31.66667,16z" fill="url(#color-3)"/><path d="M256.60834,143.10667c0,4.14562 -9.70682,4.38604 -17.31624,4.72125c-8.94827,0.39419 -16.01709,0.15378 -16.01709,-4.72125c0,-9.02065 7.46192,-16.33333 16.66667,-16.33333c9.20475,0 16.66667,7.31268 16.66667,16.33333z" fill="url(#color-4)"/></g></g></g></g></svg>